<svg width="96" height="96" viewBox="0 0 96 96" fill="none" xmlns="http://www.w3.org/2000/svg">
<rect x="0.5" y="0.500061" width="95" height="95" rx="1.5" fill="#FFE2D1"/>
<path d="M56.8125 48.0001C56.8125 48.1492 56.7532 48.2923 56.6477 48.3978C56.5423 48.5033 56.3992 48.5626 56.25 48.5626H48.5625V56.2501C48.5625 56.3992 48.5032 56.5423 48.3977 56.6478C48.2923 56.7533 48.1492 56.8126 48 56.8126C47.8508 56.8126 47.7077 56.7533 47.6023 56.6478C47.4968 56.5423 47.4375 56.3992 47.4375 56.2501V48.5626H39.75C39.6008 48.5626 39.4577 48.5033 39.3523 48.3978C39.2468 48.2923 39.1875 48.1492 39.1875 48.0001C39.1875 47.8509 39.2468 47.7078 39.3523 47.6023C39.4577 47.4968 39.6008 47.4376 39.75 47.4376H47.4375V39.7501C47.4375 39.6009 47.4968 39.4578 47.6023 39.3523C47.7077 39.2468 47.8508 39.1876 48 39.1876C48.1492 39.1876 48.2923 39.2468 48.3977 39.3523C48.5032 39.4578 48.5625 39.6009 48.5625 39.7501V47.4376H56.25C56.3992 47.4376 56.5423 47.4968 56.6477 47.6023C56.7532 47.7078 56.8125 47.8509 56.8125 48.0001Z" fill="#FE8B48"/>
<rect x="0.5" y="0.500061" width="95" height="95" rx="1.5" stroke="#FE8B48"/>
<rect x="0.5" y="0.500061" width="95" height="95" rx="1.5" stroke="black" stroke-opacity="0.2"/>
</svg>
