<svg width="16" height="16" viewBox="0 0 16 16" fill="none" xmlns="http://www.w3.org/2000/svg">
<path d="M15.3438 8C15.3438 8.12432 15.2944 8.24355 15.2065 8.33146C15.1185 8.41936 14.9993 8.46875 14.875 8.46875H8.46875V14.875C8.46875 14.9993 8.41936 15.1185 8.33146 15.2065C8.24355 15.2944 8.12432 15.3438 8 15.3438C7.87568 15.3438 7.75645 15.2944 7.66854 15.2065C7.58064 15.1185 7.53125 14.9993 7.53125 14.875V8.46875H1.125C1.00068 8.46875 0.881451 8.41936 0.793544 8.33146C0.705636 8.24355 0.65625 8.12432 0.65625 8C0.65625 7.87568 0.705636 7.75645 0.793544 7.66854C0.881451 7.58064 1.00068 7.53125 1.125 7.53125H7.53125V1.125C7.53125 1.00068 7.58064 0.881451 7.66854 0.793544C7.75645 0.705636 7.87568 0.65625 8 0.65625C8.12432 0.65625 8.24355 0.705636 8.33146 0.793544C8.41936 0.881451 8.46875 1.00068 8.46875 1.125V7.53125H14.875C14.9993 7.53125 15.1185 7.58064 15.2065 7.66854C15.2944 7.75645 15.3438 7.87568 15.3438 8Z" fill="#ECECEC"/>
</svg>
