<svg width="12" height="15" viewBox="0 0 12 15" fill="none" xmlns="http://www.w3.org/2000/svg">
<path d="M1.33333 14.1666C0.966667 14.1666 0.652667 14.0361 0.391333 13.7753C0.130444 13.5139 0 13.1999 0 12.8333V3.49992H1.33333V12.8333H8.66667V14.1666H1.33333ZM4 11.4999C3.63333 11.4999 3.31956 11.3695 3.05867 11.1086C2.79733 10.8473 2.66667 10.5333 2.66667 10.1666V2.16659C2.66667 1.79992 2.79733 1.48592 3.05867 1.22459C3.31956 0.963696 3.63333 0.833252 4 0.833252H10C10.3667 0.833252 10.6807 0.963696 10.942 1.22459C11.2029 1.48592 11.3333 1.79992 11.3333 2.16659V10.1666C11.3333 10.5333 11.2029 10.8473 10.942 11.1086C10.6807 11.3695 10.3667 11.4999 10 11.4999H4ZM4 10.1666H10V2.16659H4V10.1666Z" fill="#5F5F5F"/>
</svg>
