<svg width="14" height="14" viewBox="0 0 14 14" fill="none" xmlns="http://www.w3.org/2000/svg">
<path d="M6.76668 8.76671C6.83334 8.83337 6.91112 8.86671 7.00001 8.86671C7.0889 8.86671 7.16668 8.83337 7.23334 8.76671L9.10001 6.90004C9.21112 6.78893 9.2389 6.66671 9.18334 6.53337C9.12779 6.40004 9.02223 6.33337 8.86668 6.33337H5.13334C4.97779 6.33337 4.87223 6.40004 4.81668 6.53337C4.76112 6.66671 4.7889 6.78893 4.90001 6.90004L6.76668 8.76671ZM7.00001 13.6667C6.07779 13.6667 5.21112 13.4916 4.40001 13.1414C3.5889 12.7912 2.88334 12.3163 2.28334 11.7167C1.68334 11.1167 1.20845 10.4112 0.858677 9.60004C0.508899 8.78893 0.333788 7.92226 0.333344 7.00004C0.333344 6.07782 0.508455 5.21115 0.858677 4.40004C1.2089 3.58893 1.68379 2.88337 2.28334 2.28337C2.88334 1.68337 3.5889 1.20849 4.40001 0.858707C5.21112 0.50893 6.07779 0.333818 7.00001 0.333374C7.92223 0.333374 8.7889 0.508485 9.60001 0.858707C10.4111 1.20893 11.1167 1.68382 11.7167 2.28337C12.3167 2.88337 12.7918 3.58893 13.142 4.40004C13.4922 5.21115 13.6671 6.07782 13.6667 7.00004C13.6667 7.92226 13.4916 8.78893 13.1413 9.60004C12.7911 10.4112 12.3162 11.1167 11.7167 11.7167C11.1167 12.3167 10.4111 12.7918 9.60001 13.142C8.7889 13.4923 7.92223 13.6672 7.00001 13.6667Z" fill="#3F3F3F"/>
</svg>
